<svg xmlns="http://www.w3.org/2000/svg" version="1.1" xmlns:xlink="http://www.w3.org/1999/xlink" xmlns:svgjs="http://svgjs.dev/svgjs" width="1500" height="436" viewBox="0 0 1500 436"><g transform="matrix(1,0,0,1,-1.8466386554623568,-1.5229639277639535)"><svg viewBox="0 0 357 104" data-background-color="#ffffff" preserveAspectRatio="xMidYMid meet" height="436" width="1500" xmlns="http://www.w3.org/2000/svg" xmlns:xlink="http://www.w3.org/1999/xlink"><g id="tight-bounds" transform="matrix(1,0,0,1,0.43950000000003797,0.36327579928314435)"><svg viewBox="0 0 356.12052 103.2734484014337" height="103.2734484014337" width="356.12052"><g><svg viewBox="0 0 356.12052 103.2734484014337" height="103.2734484014337" width="356.12052"><g><svg viewBox="0 0 356.12052 103.2734484014337" height="103.2734484014337" width="356.12052"><g><path d="M0 103.273v-103.273h356.121v103.273z" fill="#ff460b" stroke="transparent" stroke-width="0" rx="0%" data-fill-palette-color="tertiary"></path><path d="M3.283 99.99v-96.707h349.554v96.707z" fill="#d2d6d9" stroke="transparent" stroke-width="0" rx="0%" data-fill-palette-color="quaternary"></path><path d="M9.85 93.424v-83.574h336.421v83.574z" fill="#ff460b" stroke="transparent" stroke-width="0" data-fill-palette-color="tertiary"></path></g><g transform="matrix(1,0,0,1,19.69974,19.69974)" id="textblocktransform"><svg viewBox="0 0 316.72104 63.8739684014337" height="63.8739684014337" width="316.72104" id="textblock"><g><svg viewBox="0 0 316.72104 63.8739684014337" height="63.8739684014337" width="316.72104"><g transform="matrix(1,0,0,1,0,0)"><svg width="316.72104" viewBox="5.65 -38.65 209.23 42.199999999999996" height="63.8739684014337" data-palette-color="#d2d6d9"><path d="M23.85-9.25L21.6-5.7 5.65-15.7 5.65-18.55 21.65-28.6 23.85-25.1 10.9-17.15 23.85-9.25ZM43.2 0.6L43.2 0.6Q39.55 0.6 36.55-0.38 33.55-1.35 31.5-2.95L31.5-2.95 33.9-6.95Q35.7-5.45 37.95-4.5 40.2-3.55 43.2-3.55L43.2-3.55Q46.8-3.55 48.9-5.05 51-6.55 51-9.1L51-9.1Q51-10.55 50.4-11.68 49.8-12.8 48.07-13.88 46.35-14.95 43-16.2L43-16.2Q39.4-17.6 37.25-19.03 35.1-20.45 34.17-22.28 33.25-24.1 33.25-26.6L33.25-26.6Q33.25-29.1 34.62-31.13 36-33.15 38.67-34.38 41.35-35.6 45.15-35.6L45.15-35.6Q48.25-35.6 50.72-34.98 53.2-34.35 55.55-33.2L55.55-33.2 53.8-29.15Q52.1-30.15 49.82-30.83 47.55-31.5 45.05-31.5L45.05-31.5Q41.75-31.5 39.85-30.2 37.95-28.9 37.95-26.85L37.95-26.85Q37.95-25.55 38.5-24.55 39.05-23.55 40.67-22.6 42.3-21.65 45.55-20.45L45.55-20.45Q49.45-19 51.72-17.4 54-15.8 54.95-13.93 55.9-12.05 55.9-9.65L55.9-9.65Q55.9-6.4 54.27-4.1 52.65-1.8 49.77-0.6 46.9 0.6 43.2 0.6ZM72.8 0.6L72.8 0.6Q67.2 0.6 63.92-2.98 60.65-6.55 60.65-13L60.65-13Q60.65-16.9 62.12-19.98 63.6-23.05 66.25-24.83 68.9-26.6 72.4-26.6L72.4-26.6Q76.15-26.6 78.62-24.98 81.09-23.35 82.34-20.6 83.59-17.85 83.59-14.55L83.59-14.55Q83.59-12.8 83.45-11.15L83.45-11.15 65.25-11.15Q65.7-7.5 67.8-5.45 69.9-3.4 73.34-3.4L73.34-3.4Q75.59-3.4 77.4-3.88 79.2-4.35 80.84-5.1L80.84-5.1 81.9-1.25Q80.09-0.45 77.84 0.08 75.59 0.6 72.8 0.6ZM65.2-14.8L65.2-14.8 79.45-14.8Q79.45-18.6 77.55-20.65 75.65-22.7 72.3-22.7L72.3-22.7Q69.4-22.7 67.5-20.68 65.59-18.65 65.2-14.8ZM101.24 0L96.54 0 86.09-24.8 90.19-26.5 99.04-5.1 107.89-26.5 111.74-24.8 101.24 0ZM125.64 0.6L125.64 0.6Q120.04 0.6 116.77-2.98 113.49-6.55 113.49-13L113.49-13Q113.49-16.9 114.97-19.98 116.44-23.05 119.09-24.83 121.74-26.6 125.24-26.6L125.24-26.6Q128.99-26.6 131.47-24.98 133.94-23.35 135.19-20.6 136.44-17.85 136.44-14.55L136.44-14.55Q136.44-12.8 136.29-11.15L136.29-11.15 118.09-11.15Q118.54-7.5 120.64-5.45 122.74-3.4 126.19-3.4L126.19-3.4Q128.44-3.4 130.24-3.88 132.04-4.35 133.69-5.1L133.69-5.1 134.74-1.25Q132.94-0.45 130.69 0.08 128.44 0.6 125.64 0.6ZM118.04-14.8L118.04-14.8 132.29-14.8Q132.29-18.6 130.39-20.65 128.49-22.7 125.14-22.7L125.14-22.7Q122.24-22.7 120.34-20.68 118.44-18.65 118.04-14.8ZM146.94 0L142.44 0 142.44-26 146.79-26 146.79-21.65Q148.19-23.75 150.36-25.18 152.54-26.6 155.54-26.6L155.54-26.6Q159.94-26.6 162.11-23.95 164.29-21.3 164.29-16.95L164.29-16.95 164.29 0 159.79 0 159.79-16.45Q159.79-19.25 158.46-20.95 157.14-22.65 154.79-22.65L154.79-22.65Q152.49-22.65 150.44-21.03 148.39-19.4 146.94-17.2L146.94-17.2 146.94 0ZM188.19-37.4L174.09 3.55 170.38 2.3 184.48-38.65 188.19-37.4ZM214.88-15.7L198.93-5.7 196.68-9.25 209.63-17.15 196.68-25.1 198.88-28.6 214.88-18.55 214.88-15.7Z" opacity="1" transform="matrix(1,0,0,1,0,0)" fill="#d2d6d9" class="wordmark-text-0" data-fill-palette-color="quaternary" id="text-0"></path></svg></g></svg></g></svg></g></svg></g><g></g></svg></g><defs></defs></svg><rect width="356.12052" height="103.2734484014337" fill="none" stroke="none" visibility="hidden"></rect></g></svg></g></svg>